<svg xmlns="http://www.w3.org/2000/svg" version="1.1" xmlns:xlink="http://www.w3.org/1999/xlink" xmlns:svgjs="http://svgjs.dev/svgjs" width="1000" height="222" viewBox="0 0 1000 222"><g transform="matrix(1,0,0,1,-0.6060605955286746,0.5140433887998768)"><svg viewBox="0 0 396 88" data-background-color="#1d366f" preserveAspectRatio="xMidYMid meet" height="222" width="1000" xmlns="http://www.w3.org/2000/svg" xmlns:xlink="http://www.w3.org/1999/xlink"><g id="tight-bounds" transform="matrix(1,0,0,1,0.24000000417066758,-0.20376494691166158)"><svg viewBox="0 0 395.52 88.40752989382332" height="88.40752989382332" width="395.52"><g><svg viewBox="0 0 535.7206678035917 119.74550200643463" height="88.40752989382332" width="395.52"><g transform="matrix(1,0,0,1,0,16.54948689090378)"><svg viewBox="0 0 395.52 86.64652822462708" height="86.64652822462708" width="395.52"><g id="textblocktransform"><svg viewBox="0 0 395.52 86.64652822462708" height="86.64652822462708" width="395.52" id="textblock"><g><svg viewBox="0 0 395.52 86.64652822462708" height="86.64652822462708" width="395.52"><g transform="matrix(1,0,0,1,0,0)"><svg width="395.52" viewBox="1.3700000047683716 -36.060001373291016 166.9300079345703 36.56999969482422" height="86.64652822462708" data-palette-color="#ffffff"><path d="M16.06 0L1.37 0 1.37-4.27 5.15-5 5.15-30.52 1.37-31.25 1.37-35.55 16.06-35.55 16.06-31.25 12.28-30.52 12.28-5 16.06-4.27 16.06 0ZM33.52 0L18.8 0 18.8-4.27 22.58-5 22.58-30.52 18.8-31.25 18.8-35.55 22.58-35.55 33.13-35.55 42.82-10.77 42.97-10.77 52.34-35.55 66.7-35.55 66.7-31.25 62.89-30.52 62.89-5 66.7-4.27 66.7 0 51.98 0 51.98-4.27 55.95-5 55.95-11.82 56.08-27.86 55.93-27.88 45.31-0.49 39.91-0.49 29.05-27.66 28.9-27.64 29.32-12.55 29.32-5 33.52-4.27 33.52 0ZM78.63 0L66.52 0 66.52-4.27 69.06-4.64 80.37-35.55 87.67-35.55 98.9-4.64 101.44-4.27 101.44 0 89.33 0 89.33-4.27 91.79-4.71 90.23-9.59 77.73-9.59 76.17-4.71 78.63-4.27 78.63 0ZM83.54-26.95L79.41-14.84 88.54-14.84 84.39-27.03 84.05-28.1 83.91-28.1 83.54-26.95ZM118.86 0.51L118.86 0.51Q113.57 0.51 109.83-1.68 106.1-3.88 104.11-7.79 102.12-11.69 102.12-16.85L102.12-16.85 102.12-18.07Q102.12-23.39 104.09-27.44 106.07-31.49 109.7-33.78 113.32-36.06 118.28-36.06L118.28-36.06Q122.11-36.06 125.48-35.01 128.85-33.96 131.34-31.86L131.34-31.86 131.34-23.97 126.07-23.97 125.07-28.74Q124.11-29.57 122.5-30.07 120.89-30.57 118.82-30.57L118.82-30.57Q115.84-30.57 113.68-29 111.52-27.44 110.37-24.63 109.22-21.83 109.22-18.12L109.22-18.12 109.22-16.85Q109.22-13.23 110.36-10.56 111.49-7.89 113.69-6.42 115.89-4.96 119.08-4.96L119.08-4.96Q120.96-4.96 122.54-5.31 124.11-5.66 125.14-6.18L125.14-6.18 125.14-12.21 120.06-12.6 120.06-17.6 132.29-17.6 132.29-3.22Q129.92-1.54 126.59-0.51 123.26 0.51 118.86 0.51ZM152.14 0.51L152.14 0.51Q148.55 0.51 145.6-0.83 142.64-2.17 140.51-4.6 138.37-7.03 137.22-10.31 136.07-13.6 136.07-17.5L136.07-17.5 136.07-18.04Q136.07-21.92 137.22-25.21 138.37-28.49 140.49-30.93 142.62-33.37 145.57-34.72 148.53-36.06 152.11-36.06L152.11-36.06Q155.73-36.06 158.71-34.72 161.68-33.37 163.83-30.93 165.98-28.49 167.14-25.21 168.3-21.92 168.3-18.04L168.3-18.04 168.3-17.5Q168.3-13.6 167.14-10.31 165.98-7.03 163.83-4.6 161.68-2.17 158.72-0.83 155.75 0.51 152.14 0.51ZM152.14-5.03L152.14-5.03Q155.17-5.03 157.17-6.59 159.17-8.15 160.18-10.96 161.2-13.77 161.2-17.5L161.2-17.5 161.2-18.09Q161.2-21.78 160.17-24.57 159.15-27.37 157.13-28.93 155.12-30.49 152.11-30.49L152.11-30.49Q149.14-30.49 147.16-28.94 145.18-27.39 144.19-24.61 143.2-21.83 143.2-18.09L143.2-18.09 143.2-17.5Q143.2-13.77 144.19-10.96 145.18-8.15 147.17-6.59 149.16-5.03 152.14-5.03Z" opacity="1" transform="matrix(1,0,0,1,0,0)" fill="#ffffff" class="wordmark-text-0" data-fill-palette-color="primary" id="text-0"></path></svg></g></svg></g></svg></g></svg></g><g transform="matrix(1,0,0,1,415.97516579715705,0)"><svg viewBox="0 0 119.74550200643463 119.74550200643463" height="119.74550200643463" width="119.74550200643463"><g data-palette-color="#08c076"><rect width="32.73043721509213" height="119.74550200643463" fill="#08c076" stroke="transparent" data-fill-palette-color="accent" x="0" fill-opacity="1"></rect><rect width="32.73043721509213" height="119.74550200643463" fill="#08c076" stroke="transparent" data-fill-palette-color="accent" x="39.91516733547821" fill-opacity="0.75"></rect><rect width="32.73043721509213" height="119.74550200643463" fill="#08c076" stroke="transparent" data-fill-palette-color="accent" x="79.83033467095642" fill-opacity="0.5"></rect></g></svg></g></svg></g><defs></defs></svg><rect width="395.52" height="88.40752989382332" fill="none" stroke="none" visibility="hidden"></rect></g></svg></g></svg>